<svg width="85" height="32" viewBox="0 0 85 32" fill="none" xmlns="http://www.w3.org/2000/svg">
<g clip-path="url(#clip0_0_3)">
<path d="M85 0L62.12 22.68H80.41C80.41 22.68 80.64 22.9 80.64 22.91V31.84L38.76 31.99L61.64 9.31H43.27V3.11L37.36 8.95C36.93 9.26 36.26 9.34 35.72 9.34C29.1 9.34 21.87 9.32 15.15 9.32C14.09 9.44 14.25 11.25 15.32 11.34C21.3 11.34 26.85 11.34 32.29 11.34C39.33 11.34 43.72 19.25 40.95 25.74C39.64 28.82 35.55 32 32.13 32H0L9.15 22.88C16.54 22.88 23.77 22.8 31.07 22.69C32.25 22.53 32.05 20.81 30.9 20.67C25.32 20.67 19.52 21.07 14.09 20.67C4.38 19.95 0.91 7.37 8.98 1.89C10.1 1.13 12.77 0 14.09 0H85Z" fill="white"/>
</g>
<defs>
<clipPath id="clip0_0_3">
<rect width="85" height="32" fill="white"/>
</clipPath>
</defs>
</svg>
